<svg width="40" height="40" viewBox="0 0 40 40" fill="none" xmlns="http://www.w3.org/2000/svg">
<rect width="40" height="40" rx="6" fill="#FFF2EE"/>
<g clip-path="url(#clip0_24_5484)">
<path fill-rule="evenodd" clip-rule="evenodd" d="M10.8164 21.4507C10.8164 14.2864 15.1081 8.00195 20.0006 8.00195C24.8938 8.00195 29.1861 14.2864 29.1861 21.4507C29.1861 24.1879 28.2299 26.8063 26.4937 28.8237C25.646 29.8088 24.6643 30.5862 23.5761 31.1341C22.4325 31.7099 21.2292 32.002 19.9999 32.002C18.7706 32.002 17.5675 31.7099 16.4241 31.1339C15.3362 30.5859 14.3548 29.8085 13.5073 28.8233C11.7721 26.806 10.8164 24.1878 10.8164 21.4507ZM12.3009 21.4507C12.3009 26.3654 15.8267 30.5174 19.9999 30.5174C24.1747 30.5174 27.7015 26.3654 27.7015 21.4507C27.7015 15.1891 24.031 9.48649 20.0006 9.48649C15.9709 9.48649 12.3009 15.1891 12.3009 21.4507ZM15.7648 21.4512C15.7648 22.982 16.3093 24.493 17.2587 25.5966C18.0671 26.5364 19.0406 27.0539 19.9999 27.0539V28.5384C18.6013 28.5384 17.2281 27.8375 16.1333 26.5648C14.9557 25.1958 14.2803 23.332 14.2803 21.4512H15.7648Z" fill="#FA6140"/>
</g>
<defs>
<clipPath id="clip0_24_5484">
<rect width="24" height="24" fill="white" transform="translate(8 8)"/>
</clipPath>
</defs>
</svg>
