<svg width="64" height="64" viewBox="0 0 64 64" fill="none" xmlns="http://www.w3.org/2000/svg">
<rect y="-0.000244141" width="64" height="64.0005" rx="8" fill="#00D6C9"/>
<path d="M27.7897 55.061H16.4542C13.3414 55.061 10.8181 52.5377 10.8181 49.425L8.93945 14.5754C8.93945 11.4626 11.4628 8.93933 14.5755 8.93933H49.4251C52.5379 8.93933 55.0612 11.4626 55.0612 14.5754L53.1825 49.425C53.1825 52.5377 50.6592 55.061 47.5465 55.061H36.211H27.7897Z" fill="#CECCF5"/>
<path d="M41.5761 28.5841H22.4228C22.4228 28.5841 19.706 22.3845 18.3477 19.2846C19.6216 18.2936 24.5979 14.6595 32.0674 14.6816C39.4516 14.7035 44.3651 18.2841 45.6512 19.2846C44.2929 22.3844 41.5761 28.5841 41.5761 28.5841Z" fill="#FFF3D9"/>
<path d="M25.9883 28.588C26.0851 26.1536 28.7387 24.203 31.9987 24.203C33.1717 24.203 34.2636 24.4544 35.1884 24.8894C36.839 25.6657 37.9495 27.0286 38.0119 28.589L25.9883 28.588Z" fill="#FF7C96"/>
<path d="M32 55.9978C32.5178 55.9978 32.9375 55.5781 32.9375 55.0603C32.9375 54.5425 32.5178 54.1228 32 54.1228C31.4822 54.1228 31.0625 54.5425 31.0625 55.0603C31.0625 55.5781 31.4822 55.9978 32 55.9978Z" fill="#1F415B"/>
<path d="M49.4248 7.99976H14.5752C10.9494 7.99976 8.00042 10.9748 8.00042 14.6005C7.99948 14.5836 8.00042 14.6174 8.00042 14.6005L9.87853 49.4511C9.89287 53.0646 12.837 56.0002 16.4538 56.0002H27.7894C28.3081 56.0002 28.7287 55.5797 28.7287 55.0608C28.7287 54.542 28.3082 54.1215 27.7894 54.1215H16.4538C13.8641 54.1215 11.7565 51.9893 11.7565 49.3994C11.7565 49.3825 11.7574 49.4163 11.7565 49.3994L9.87853 14.551C9.89156 11.9723 11.9935 9.87843 14.5752 9.87843H49.4248C52.0065 9.87843 54.1084 11.9723 54.1215 14.551L52.2435 49.3995C52.2426 49.4164 52.2435 49.3826 52.2435 49.3995C52.2435 51.9893 50.1359 54.1216 47.5462 54.1216H36.2106C35.6919 54.1216 35.2712 54.5421 35.2712 55.0609C35.2712 55.5798 35.6919 56.0002 36.2106 56.0002H47.5462C51.163 56.0002 54.1071 53.0646 54.1215 49.4511L55.9996 14.6004C55.9996 14.6173 56.0005 14.5835 55.9996 14.6004C55.9996 10.9748 53.0506 7.99976 49.4248 7.99976Z" fill="#BCBAF6"/>
<path d="M22.4246 29.5232H41.5779C41.9508 29.5232 42.2885 29.3025 42.4382 28.9609L46.5134 19.6614C46.686 19.2676 46.5692 18.8069 46.2299 18.5429C44.3836 17.1066 39.2731 13.7634 32.037 13.7419C32.0135 13.7419 32.0606 13.7419 32.037 13.7419C24.7665 13.7419 19.6315 17.0969 17.7727 18.5429C17.4334 18.8069 17.3166 19.2676 17.4892 19.6614L21.5644 28.9609C21.7139 29.3025 22.0516 29.5232 22.4246 29.5232ZM31.9999 25.1373C32.9945 25.1373 33.9592 25.3438 34.7897 25.7344C35.773 26.1968 36.4868 26.8757 36.8355 27.6446H27.1653C27.8221 26.1976 29.7594 25.1373 31.9999 25.1373ZM23.2007 17.497L23.9338 19.0522C24.0939 19.392 24.4317 19.5913 24.784 19.5913C24.9181 19.5913 25.0546 19.5624 25.1838 19.5013C25.6532 19.2801 25.8542 18.7204 25.633 18.2512L24.9522 16.8068C26.6997 16.2028 28.7507 15.7428 31.0619 15.6425V17.2489C31.0619 17.7677 31.4825 18.1883 32.0013 18.1883C32.5201 18.1883 32.9407 17.7677 32.9407 17.2489V15.6426C35.2389 15.7424 37.2805 16.1977 39.0218 16.7967L38.4141 18.3365C38.2237 18.819 38.4604 19.3647 38.943 19.5552C39.0562 19.5999 39.1728 19.621 39.2875 19.621C39.6619 19.621 40.0158 19.3956 40.1616 19.0263L40.7704 17.4836C42.3821 18.1973 43.6409 18.9848 44.4929 19.5919L40.964 27.6446H38.821C38.4439 26.1433 37.2875 24.833 35.5894 24.0344C34.5105 23.5269 33.2692 23.2586 32 23.2586C30.6663 23.2586 29.424 23.5489 28.3684 24.0537L27.0759 21.3114C26.8547 20.8422 26.2953 20.6409 25.8257 20.8621C25.3564 21.0834 25.1552 21.6431 25.3764 22.1123L26.7829 25.0965C25.988 25.8032 25.4246 26.6752 25.182 27.6447H23.0386L19.5097 19.5919C20.3573 18.9878 21.6049 18.2067 23.2007 17.497Z" fill="#1F415B"/>
<path d="M22.4238 33.2867H41.5771C42.0958 33.2867 42.5165 32.8662 42.5165 32.3473C42.5165 31.8285 42.0959 31.408 41.5771 31.408H22.4238C21.905 31.408 21.4844 31.8285 21.4844 32.3473C21.4844 32.8662 21.905 33.2867 22.4238 33.2867Z" fill="#1F415B"/>
<path d="M15.4022 47.5701C15.4022 47.0513 14.9816 46.6307 14.4628 46.6307C13.9441 46.6307 13.5234 47.0513 13.5234 47.5701C13.5234 50.1698 15.6386 52.2849 18.2384 52.2849C18.7571 52.2849 19.1777 51.8644 19.1777 51.3456C19.1777 50.8267 18.7572 50.4062 18.2384 50.4062C16.6745 50.4063 15.4022 49.134 15.4022 47.5701Z" fill="#1F415B"/>
<path d="M44.7285 51.3456C44.7285 51.8644 45.1491 52.2849 45.6679 52.2849C48.2677 52.2849 50.3828 50.1698 50.3828 47.5701C50.3828 47.0513 49.9623 46.6307 49.4434 46.6307C48.9246 46.6307 48.5041 47.0513 48.5041 47.5701C48.5041 49.134 47.2318 50.4063 45.6679 50.4063C45.1491 50.4063 44.7285 50.8267 44.7285 51.3456Z" fill="#1F415B"/>
</svg>
