<svg width="64" height="64" viewBox="0 0 64 64" fill="none" xmlns="http://www.w3.org/2000/svg">
<rect width="64" height="64" rx="8" fill="#37BD69"/>
<path fill-rule="evenodd" clip-rule="evenodd" d="M19.3056 40.6586C14.5662 42.0311 11.3711 44.1539 10.9127 46.5687C10.8746 46.7679 10.8555 46.9697 10.8555 47.1717C10.8555 49.6575 13.7477 51.8839 18.3043 53.3765C21.996 54.5852 26.7763 55.3166 32.0014 55.3166C37.2266 55.3166 42.0096 54.5853 45.6986 53.3765C50.2579 51.884 53.1474 49.6575 53.1474 47.1717C53.1474 46.3203 52.8091 45.4991 52.1788 44.7296C50.8227 43.0679 48.1215 41.6354 44.5662 40.623L19.3056 40.6586Z" fill="#AA6A51"/>
<path fill-rule="evenodd" clip-rule="evenodd" d="M52.1798 44.7296C50.8237 43.0679 48.1224 41.6354 44.5672 40.623C44.0624 40.8413 43.9042 41.2233 44.1497 41.799C45.121 42.3885 45.9014 43.0296 46.4553 43.709C47.0856 44.4812 47.4239 45.3025 47.4239 46.1538C47.4239 48.6396 44.5317 50.8634 39.9751 52.3587C36.2861 53.5674 31.5031 54.2959 26.2779 54.2959C24.2316 54.2959 22.2506 54.1841 20.3789 53.9767C23.7158 54.8226 27.7104 55.3165 32.0024 55.3165C37.2275 55.3165 42.0106 54.5852 45.6996 53.3764C50.2589 51.8839 53.1484 49.6574 53.1484 47.1716C53.1484 46.3203 52.81 45.499 52.1798 44.7296Z" fill="#935B44"/>
<path fill-rule="evenodd" clip-rule="evenodd" d="M32.002 15.4941C23.3499 15.4941 18.7305 29.8165 18.7305 36.7908C18.7305 38.136 18.9324 39.4348 19.3062 40.6572C20.2721 43.8114 22.3867 46.4636 25.1643 48.1253C27.1534 48.319 29.4945 48.4337 32.002 48.4337C34.444 48.4337 36.7306 48.3273 38.6841 48.139C41.4782 46.4719 43.6064 43.7978 44.5669 40.6218C44.9325 39.4075 45.1317 38.1224 45.1317 36.7909C45.1317 29.7074 40.7852 15.4941 32.002 15.4941Z" fill="#FAF7F7"/>
<path fill-rule="evenodd" clip-rule="evenodd" d="M45.1297 36.7908C45.1297 29.7074 40.7831 15.4941 32 15.4941C31.0532 15.4941 30.1527 15.6661 29.3042 15.9799C36.2537 18.5311 39.6971 30.485 39.6971 36.7908C39.6971 38.1223 39.5007 39.4075 39.1323 40.6217C39.1323 40.6244 39.1323 40.6271 39.1296 40.6298C38.1691 43.8032 36.0436 46.4745 33.2524 48.1389C32.0409 48.2563 30.7067 48.3409 29.2852 48.3873C30.161 48.4173 31.0696 48.4337 32.0001 48.4337C34.4421 48.4337 36.7286 48.3273 38.6822 48.139C41.4762 46.4719 43.6044 43.7978 44.5649 40.6218C44.9304 39.4075 45.1297 38.1224 45.1297 36.7908Z" fill="#DEDBEE"/>
<path d="M15.2803 47.3471C15.0029 47.6245 15.0029 48.0741 15.2803 48.3515C15.419 48.4901 15.6007 48.5594 15.7824 48.5594C15.9641 48.5594 16.1458 48.4901 16.2845 48.3515L16.2872 48.3488C16.5645 48.0715 16.5631 47.6231 16.2858 47.3458C16.0086 47.0685 15.5576 47.0696 15.2803 47.3471Z" fill="black"/>
<path d="M26.0037 50.8936C25.7218 51.1662 25.7141 51.6157 25.9866 51.8977C26.126 52.0418 26.3114 52.1143 26.4973 52.1143C26.6749 52.1143 26.8528 52.048 26.9908 51.9148L26.9935 51.9122C27.2754 51.6395 27.2818 51.1913 27.0091 50.9094C26.7366 50.6272 26.2857 50.6209 26.0037 50.8936Z" fill="black"/>
<path d="M40.2132 51.3814V51.3787C40.2132 50.9865 39.8953 50.6699 39.503 50.6699C39.1108 50.6699 38.793 50.9892 38.793 51.3814C38.793 51.7735 39.1109 52.0915 39.503 52.0915C39.8952 52.0915 40.2132 51.7735 40.2132 51.3814Z" fill="black"/>
<path d="M49.3588 46.1915L49.3615 46.1888C49.6388 45.9115 49.6374 45.4631 49.3601 45.1858C49.0827 44.9086 48.6317 44.9097 48.3545 45.1872C48.0772 45.4646 48.0772 45.9142 48.3545 46.1916C48.4932 46.3302 48.6749 46.3995 48.8566 46.3995C49.0383 46.3995 49.2201 46.3301 49.3588 46.1915Z" fill="black"/>
<path d="M32.0012 12.3847C32.3933 12.3847 32.7113 12.0668 32.7113 11.6745V8.71406C32.7113 8.32181 32.3933 8.00391 32.0012 8.00391C31.609 8.00391 31.291 8.32181 31.291 8.71406V11.6746C31.291 12.0667 31.609 12.3847 32.0012 12.3847Z" fill="#DEDBEE"/>
<path d="M42.1011 15.3162C42.236 15.4345 42.4029 15.4926 42.5692 15.4926C42.7666 15.4926 42.9629 15.4108 43.1032 15.2508L45.0568 13.0242C45.3154 12.7294 45.2862 12.2807 44.9914 12.0221C44.6964 11.7634 44.248 11.7926 43.9893 12.0875L42.0358 14.314C41.777 14.609 41.8064 15.0577 42.1011 15.3162Z" fill="#DEDBEE"/>
<path d="M20.9034 15.2507C21.0438 15.4106 21.2401 15.4925 21.4374 15.4925C21.6037 15.4925 21.7706 15.4344 21.9055 15.3161C22.2002 15.0575 22.2296 14.6089 21.9708 14.314L20.0173 12.0875C19.7586 11.7927 19.3101 11.7634 19.0152 12.0221C18.7204 12.2807 18.6911 12.7294 18.9498 13.0242L20.9034 15.2507Z" fill="#DEDBEE"/>
</svg>
