<svg width="40" height="40" viewBox="0 0 40 40" fill="none" xmlns="http://www.w3.org/2000/svg">
<path d="M27.15 29.625H22.6812C22.4989 29.625 22.324 29.5526 22.1951 29.4236C22.0662 29.2947 21.9937 29.1198 21.9937 28.9375C21.9937 28.7552 22.0662 28.5803 22.1951 28.4514C22.324 28.3224 22.4989 28.25 22.6812 28.25H27.15C27.4417 28.25 27.7215 28.1341 27.9278 27.9278C28.1341 27.7215 28.25 27.4417 28.25 27.15V22.6812C28.25 22.4989 28.3224 22.324 28.4514 22.1951C28.5803 22.0662 28.7552 21.9937 28.9375 21.9937C29.1198 21.9937 29.2947 22.0662 29.4236 22.1951C29.5526 22.324 29.625 22.4989 29.625 22.6812V27.15C29.6232 27.8059 29.3618 28.4343 28.8981 28.8981C28.4343 29.3618 27.8059 29.6232 27.15 29.625ZM18.0063 28.9375C18.0063 28.7552 17.9338 28.5803 17.8049 28.4514C17.676 28.3224 17.5011 28.25 17.3188 28.25H12.85C12.5583 28.25 12.2785 28.1341 12.0722 27.9278C11.8659 27.7215 11.75 27.4417 11.75 27.15V22.6812C11.75 22.4989 11.6776 22.324 11.5486 22.1951C11.4197 22.0662 11.2448 21.9937 11.0625 21.9937C10.8802 21.9937 10.7053 22.0662 10.5764 22.1951C10.4474 22.324 10.375 22.4989 10.375 22.6812V27.15C10.3768 27.8059 10.6382 28.4343 11.1019 28.8981C11.5657 29.3618 12.1941 29.6232 12.85 29.625H17.3188C17.5011 29.625 17.676 29.5526 17.8049 29.4236C17.9338 29.2947 18.0063 29.1198 18.0063 28.9375ZM11.75 17.3188V12.85C11.75 12.5583 11.8659 12.2785 12.0722 12.0722C12.2785 11.8659 12.5583 11.75 12.85 11.75H17.3188C17.5011 11.75 17.676 11.6776 17.8049 11.5486C17.9338 11.4197 18.0063 11.2448 18.0063 11.0625C18.0063 10.8802 17.9338 10.7053 17.8049 10.5764C17.676 10.4474 17.5011 10.375 17.3188 10.375H12.85C12.1941 10.3768 11.5657 10.6382 11.1019 11.1019C10.6382 11.5657 10.3768 12.1941 10.375 12.85V17.3188C10.375 17.5011 10.4474 17.676 10.5764 17.8049C10.7053 17.9338 10.8802 18.0063 11.0625 18.0063C11.2448 18.0063 11.4197 17.9338 11.5486 17.8049C11.6776 17.676 11.75 17.5011 11.75 17.3188ZM29.625 17.3188V12.85C29.6232 12.1941 29.3618 11.5657 28.8981 11.1019C28.4343 10.6382 27.8059 10.3768 27.15 10.375H22.6812C22.4989 10.375 22.324 10.4474 22.1951 10.5764C22.0662 10.7053 21.9937 10.8802 21.9937 11.0625C21.9937 11.2448 22.0662 11.4197 22.1951 11.5486C22.324 11.6776 22.4989 11.75 22.6812 11.75H27.15C27.4417 11.75 27.7215 11.8659 27.9278 12.0722C28.1341 12.2785 28.25 12.5583 28.25 12.85V17.3188C28.25 17.5011 28.3224 17.676 28.4514 17.8049C28.5803 17.9338 28.7552 18.0063 28.9375 18.0063C29.1198 18.0063 29.2947 17.9338 29.4236 17.8049C29.5526 17.676 29.625 17.5011 29.625 17.3188Z" fill="black"/>
</svg>
