<svg width="24" height="24" viewBox="0 0 24 24" fill="none" xmlns="http://www.w3.org/2000/svg">
<path d="M22.5 11H1.5C1.225 11 1 11.225 1 11.5V13C1 18.515 5.485 23 11 23H13C18.515 23 23 18.515 23 13V11.5C23 11.225 22.775 11 22.5 11ZM22 13C22 17.96 17.96 22 13 22H11C6.04 22 2 17.96 2 13V12H22V13Z" fill="white" stroke="white" stroke-width="0.2"/>
<path d="M6.14965 7.08103L7.12965 7.24103C7.15465 7.24103 7.18465 7.24603 7.20965 7.24603C7.44965 7.24603 7.65965 7.07603 7.69965 6.83103C7.85465 5.95103 7.64965 5.06103 7.12965 4.32603C6.58965 3.56603 5.78465 3.06603 4.84965 2.91103L3.86965 2.75103C3.59965 2.70603 3.34465 2.88603 3.29465 3.15603C3.13965 4.03603 3.34465 4.92603 3.86465 5.66103C4.40465 6.42103 5.20965 6.92103 6.14465 7.07603L6.14965 7.08103ZM4.68965 3.90103C5.35465 4.01103 5.93465 4.36603 6.31465 4.90603C6.57965 5.28103 6.72965 5.71603 6.74965 6.16603L6.30965 6.09603C5.64465 5.98603 5.06465 5.63103 4.68465 5.09103C4.41965 4.71603 4.26965 4.28103 4.24965 3.83103L4.68465 3.90103H4.68965Z" fill="white" stroke="white" stroke-width="0.2"/>
<path d="M8.9401 9.47066C9.1101 9.49066 9.2751 9.50066 9.4401 9.50066C11.3901 9.50066 13.0901 8.10066 13.3501 6.18566L13.4951 5.09566C13.5151 4.96566 13.4751 4.83066 13.3951 4.72566C13.3151 4.62066 13.1951 4.55066 13.0601 4.53566C10.9101 4.27566 8.9301 5.74566 8.6501 7.82066L8.5051 8.91066C8.4851 9.04066 8.5251 9.17566 8.6051 9.28066C8.6851 9.38566 8.8051 9.45566 8.9401 9.47066ZM9.6451 7.95066C9.8301 6.58066 11.0301 5.56566 12.4351 5.50566L12.3601 6.05566C12.1751 7.42566 10.9751 8.44066 9.5701 8.50066L9.6451 7.95066Z" fill="white" stroke="white" stroke-width="0.2"/>
<path d="M15.4955 10.516C15.5655 10.551 15.6455 10.571 15.7205 10.571C15.9055 10.571 16.0805 10.471 16.1655 10.296L20.0355 2.61097C20.2605 2.10597 20.8405 1.87097 21.3555 2.08097C21.8005 2.26097 22.0655 2.73097 21.9955 3.16597L20.3655 9.93597C20.3005 10.206 20.4655 10.476 20.7355 10.541C21.0055 10.606 21.2755 10.441 21.3405 10.171L22.9755 3.36597C23.1305 2.43597 22.6055 1.50097 21.7305 1.15097C20.7205 0.745968 19.5755 1.20597 19.1405 2.18097L15.2805 9.84597C15.1555 10.091 15.2555 10.391 15.5005 10.516H15.4955Z" fill="white" stroke="white" stroke-width="0.2"/>
<path d="M8 17C8.275 17 8.5 16.775 8.5 16.5V16C8.5 15.725 8.275 15.5 8 15.5C7.725 15.5 7.5 15.725 7.5 16V16.5C7.5 16.775 7.725 17 8 17Z" fill="white" stroke="white" stroke-width="0.2"/>
<path d="M8 18C7.725 18 7.5 18.225 7.5 18.5V19C7.5 19.275 7.725 19.5 8 19.5C8.275 19.5 8.5 19.275 8.5 19V18.5C8.5 18.225 8.275 18 8 18Z" fill="white" stroke="white" stroke-width="0.2"/>
<path d="M6.5 18H7C7.275 18 7.5 17.775 7.5 17.5C7.5 17.225 7.275 17 7 17H6.5C6.225 17 6 17.225 6 17.5C6 17.775 6.225 18 6.5 18Z" fill="white" stroke="white" stroke-width="0.2"/>
<path d="M9 18H9.5C9.775 18 10 17.775 10 17.5C10 17.225 9.775 17 9.5 17H9C8.725 17 8.5 17.225 8.5 17.5C8.5 17.775 8.725 18 9 18Z" fill="white" stroke="white" stroke-width="0.2"/>
<path d="M16.5 14.5C16.775 14.5 17 14.275 17 14V13.5C17 13.225 16.775 13 16.5 13C16.225 13 16 13.225 16 13.5V14C16 14.275 16.225 14.5 16.5 14.5Z" fill="white" stroke="white" stroke-width="0.2"/>
<path d="M16.5 15.5C16.225 15.5 16 15.725 16 16V16.5C16 16.775 16.225 17 16.5 17C16.775 17 17 16.775 17 16.5V16C17 15.725 16.775 15.5 16.5 15.5Z" fill="white" stroke="white" stroke-width="0.2"/>
<path d="M15 15.5H15.5C15.775 15.5 16 15.275 16 15C16 14.725 15.775 14.5 15.5 14.5H15C14.725 14.5 14.5 14.725 14.5 15C14.5 15.275 14.725 15.5 15 15.5Z" fill="white" stroke="white" stroke-width="0.2"/>
<path d="M17.5 15.5H18C18.275 15.5 18.5 15.275 18.5 15C18.5 14.725 18.275 14.5 18 14.5H17.5C17.225 14.5 17 14.725 17 15C17 15.275 17.225 15.5 17.5 15.5Z" fill="white" stroke="white" stroke-width="0.2"/>
</svg>
