<svg width="40" height="22" viewBox="0 0 40 22" fill="none" xmlns="http://www.w3.org/2000/svg">
<rect width="7.47627" height="21.2092" rx="3.73813" transform="matrix(-0.869082 0.494669 0.50535 0.862914 29.2051 0)" fill="#37BD69"/>
<rect width="7.47627" height="21.2092" rx="3.73813" transform="matrix(-0.869082 0.494669 0.50535 0.862914 29.2812 0)" fill="url(#paint0_linear_220_15254)" fill-opacity="0.4"/>
<rect width="7.47627" height="21.2092" rx="3.73813" transform="matrix(0.869082 0.494669 -0.50535 0.862914 25.8574 0)" fill="#37BD69"/>
<rect width="7.47627" height="21.2092" rx="3.73813" transform="matrix(-0.869082 0.494669 0.50535 0.862914 14.0664 0)" fill="#37BD69"/>
<rect width="7.47627" height="21.2092" rx="3.73813" transform="matrix(-0.869082 0.494669 0.50535 0.862914 14.0664 0)" fill="url(#paint1_linear_220_15254)" fill-opacity="0.4"/>
<rect width="7.47627" height="21.2092" rx="3.73813" transform="matrix(0.869082 0.494669 -0.50535 0.862914 10.7188 0)" fill="#37BD69"/>
<defs>
<linearGradient id="paint0_linear_220_15254" x1="3.73813" y1="0" x2="3.73813" y2="21.2092" gradientUnits="userSpaceOnUse">
<stop/>
<stop offset="1" stop-opacity="0"/>
</linearGradient>
<linearGradient id="paint1_linear_220_15254" x1="3.73813" y1="0" x2="3.73813" y2="21.2092" gradientUnits="userSpaceOnUse">
<stop/>
<stop offset="1" stop-opacity="0"/>
</linearGradient>
</defs>
</svg>
