<svg width="22" height="22" viewBox="0 0 22 22" fill="none" xmlns="http://www.w3.org/2000/svg">
<path d="M11.4854 4.8882C11.0082 4.41096 10.2344 4.41096 9.75719 4.8882L4.51032 10.1351C4.03302 10.6124 4.03302 11.3862 4.51032 11.8636L9.75719 17.1104C10.2344 17.5877 11.0082 17.5877 11.4854 17.1104C11.9627 16.6332 11.9627 15.8594 11.4854 15.3822L7.96677 11.8636C7.48946 11.3862 7.48946 10.6124 7.96677 10.1351L11.4854 6.61642C11.9627 6.13919 11.9627 5.36544 11.4854 4.8882Z" fill="#C3CEC7"/>
<path d="M15.8685 4.8882L10.6217 10.1351C10.1443 10.6124 10.1443 11.3862 10.6217 11.8636L15.8685 17.1104C16.3458 17.5877 17.1195 17.5877 17.5967 17.1104C18.074 16.6332 18.074 15.8594 17.5967 15.3822L14.0781 11.8636C13.6008 11.3862 13.6008 10.6124 14.0781 10.1351L17.5967 6.61642C18.074 6.13919 18.074 5.36544 17.5967 4.8882C17.1195 4.41096 16.3458 4.41096 15.8685 4.8882Z" fill="#839D8D"/>
</svg>
