<svg width="41" height="40" viewBox="0 0 41 40" fill="none" xmlns="http://www.w3.org/2000/svg">
<rect x="0.599609" width="40" height="40" rx="6" fill="#F2FFF8"/>
<g clip-path="url(#clip0_24_5502)">
<path d="M31.8959 22.1106C31.2332 22.1106 30.5721 21.9396 29.9988 21.6304C30.7603 20.6819 31.1459 19.4284 31.1459 17.8921C31.1459 14.3789 28.9148 9.45508 25.5212 9.45508C24.3469 9.45508 23.1886 10.0901 22.21 11.2574C21.6908 10.9968 21.1499 10.8612 20.5997 10.8612C20.0494 10.8612 19.5085 10.9968 18.9893 11.2574C18.0107 10.0901 16.8524 9.45508 15.6781 9.45508C12.262 9.45508 10.0534 14.4173 10.0534 17.8921C10.0534 19.4284 10.439 20.6819 11.2005 21.6304C10.6272 21.9396 9.9661 22.1106 9.30347 22.1106C8.67923 22.1106 8.36378 22.8682 8.80635 23.3108C9.42187 23.9263 10.1401 24.4684 10.9318 24.9186C10.8734 24.9215 10.8149 24.9229 10.7566 24.9229C10.0628 24.9229 9.78958 25.8264 10.3666 26.211C10.8711 26.4649 12.3261 27.9466 14.844 27.7232C14.8706 28.2397 14.9668 28.7483 15.1318 29.2431C15.2967 29.7379 15.9266 29.8873 16.296 29.5179C16.8716 28.9422 17.6153 28.57 18.4239 28.4464C19.1132 29.6037 20.1309 30.3719 20.179 30.4078C20.4286 30.5941 20.7708 30.5941 21.0203 30.4078C21.0684 30.3719 22.0862 29.6037 22.7755 28.4464C23.5841 28.5701 24.3277 28.9422 24.9034 29.5179C25.2718 29.8863 25.9021 29.7394 26.0675 29.2431C26.2326 28.7482 26.3287 28.2397 26.3554 27.7232C28.8784 27.9466 30.3142 26.4719 30.8328 26.2109C31.41 25.8262 31.1362 24.9228 30.4428 24.9228C30.3845 24.9228 30.326 24.9214 30.2676 24.9186C31.0592 24.4683 31.7775 23.9263 32.393 23.3108C32.8347 22.8692 32.5213 22.1106 31.8959 22.1106ZM25.5212 10.8612C27.9854 10.8612 29.7397 15.1807 29.7397 17.8921C29.7397 21.4591 27.2436 22.0771 25.6569 22.1091C26.0339 21.3167 26.2243 20.3773 26.2243 19.2982C26.2243 16.7716 25.1307 13.7351 23.3602 12.075C24.0447 11.2879 24.7974 10.8612 25.5212 10.8612ZM20.5997 12.2674C23.0638 12.2674 24.8182 16.5869 24.8182 19.2982C24.8182 22.9687 22.1751 23.5167 20.5997 23.5167C19.0242 23.5167 16.3812 22.9687 16.3812 19.2982C16.3812 16.6051 18.1267 12.2674 20.5997 12.2674ZM15.6781 10.8612C16.4019 10.8612 17.1546 11.2879 17.8391 12.075C16.0531 13.7497 14.975 16.7936 14.975 19.2982C14.975 20.3773 15.1654 21.3167 15.5424 22.1091C13.9557 22.0771 11.4596 21.4591 11.4596 17.8921C11.4596 15.199 13.2051 10.8612 15.6781 10.8612ZM28.0337 24.3991C27.4621 24.6021 27.3997 25.3883 27.9323 25.6788C28.1361 25.79 28.3458 25.8875 28.56 25.9708C27.7057 26.3574 26.7331 26.4454 25.8073 26.207C25.3336 26.0849 24.8821 26.4735 24.9327 26.9605C24.9609 27.2327 24.9644 27.5032 24.9431 27.7703C24.1874 27.3065 23.3173 27.0388 22.4069 26.9997C22.1238 26.9878 21.8616 27.1462 21.7409 27.4021C21.4398 28.0404 20.9509 28.5792 20.6003 28.9139C20.2489 28.578 19.7584 28.0377 19.4586 27.4021C19.3378 27.1462 19.0743 26.9875 18.7926 26.9997C17.8821 27.0388 17.012 27.3064 16.2564 27.7703C16.2351 27.5031 16.2385 27.2327 16.2668 26.9605C16.3173 26.4739 15.8666 26.085 15.3922 26.207C14.4664 26.4454 13.4938 26.3575 12.6394 25.9708C12.8536 25.8875 13.0633 25.79 13.2671 25.6788C13.7996 25.3884 13.7374 24.6022 13.1657 24.3991C12.3598 24.1128 11.6065 23.7275 10.936 23.2617C11.4175 23.1092 11.8758 22.8907 12.29 22.6145C13.5109 23.4076 15.0866 23.6262 16.5206 23.4723C17.6064 24.5168 19.0936 24.9229 20.5998 24.9229C22.1064 24.9229 23.5934 24.5166 24.679 23.4723C26.1124 23.6262 27.6883 23.4078 28.9096 22.6145C29.3238 22.8907 29.7821 23.1092 30.2636 23.2617C29.5929 23.7275 28.8397 24.1128 28.0337 24.3991Z" fill="#006D35"/>
</g>
<defs>
<clipPath id="clip0_24_5502">
<rect width="24" height="24" fill="white" transform="translate(8.59961 8)"/>
</clipPath>
</defs>
</svg>
