<svg width="40" height="40" viewBox="0 0 40 40" fill="none" xmlns="http://www.w3.org/2000/svg">
<path d="M26.46 27.4993H13.54C12.8587 27.5001 12.2009 27.2509 11.6911 26.7989C11.1814 26.3469 10.8552 25.7236 10.7744 25.0472C10.7597 24.9284 10.7515 24.8089 10.75 24.6893C10.7525 24.2985 10.8379 23.9127 11.0005 23.5573C11.1632 23.202 11.3993 22.8851 11.6934 22.6278L12.0703 22.2904C12.5505 21.8623 12.8713 21.2841 12.9805 20.6502L13.7695 15.9158C13.9857 14.5818 14.6257 13.3528 15.5948 12.4109C16.564 11.469 17.8107 10.8643 19.1504 10.6863C19.3475 10.6599 19.547 10.7129 19.7051 10.8336C19.8631 10.9543 19.9667 11.1328 19.9932 11.3299C20.0196 11.527 19.9666 11.7265 19.8459 11.8846C19.7252 12.0426 19.5467 12.1462 19.3496 12.1727C18.328 12.3091 17.3776 12.771 16.639 13.4899C15.9004 14.2088 15.413 15.1464 15.249 16.1639L14.46 20.9027C14.2921 21.8719 13.8013 22.7559 13.0674 23.411L12.6905 23.7484C12.5546 23.865 12.445 24.0092 12.3691 24.1715C12.2931 24.3337 12.2526 24.5102 12.25 24.6893C12.2514 24.7525 12.2566 24.8157 12.2657 24.8783C12.3043 25.1886 12.4553 25.4741 12.6901 25.6806C12.9249 25.8872 13.2273 26.0006 13.54 25.9993H26.46C26.7779 26.0011 27.085 25.8838 27.3209 25.6705C27.5567 25.4573 27.7042 25.1635 27.7344 24.847C27.7354 24.8362 27.7461 24.7562 27.7471 24.7454C27.7621 24.5421 27.729 24.3381 27.6504 24.1499C27.5719 23.9617 27.4501 23.7947 27.295 23.6624L27.0215 23.4368C26.2542 22.7785 25.7409 21.8728 25.5703 20.8763L25.0596 17.7919C25.0283 17.5961 25.0758 17.396 25.1917 17.2351C25.3076 17.0743 25.4824 16.9658 25.6779 16.9334C25.8735 16.9011 26.0739 16.9474 26.2354 17.0623C26.397 17.1772 26.5065 17.3513 26.54 17.5467L27.0498 20.6268C27.1595 21.2734 27.4914 21.8616 27.9882 22.2899L28.2685 22.5218C28.7027 22.8974 29.0126 23.396 29.1571 23.9516C29.3017 24.5072 29.2741 25.0937 29.0781 25.6332C28.882 26.1728 28.5267 26.6402 28.0592 26.9734C27.5917 27.3066 27.034 27.49 26.46 27.4993Z" fill="black"/>
<path d="M20 30.75C19.0058 30.7488 18.0526 30.3534 17.3496 29.6504C16.6466 28.9474 16.2512 27.9942 16.25 27V26.75C16.25 26.5511 16.329 26.3603 16.4697 26.2197C16.6103 26.079 16.8011 26 17 26C17.1989 26 17.3897 26.079 17.5303 26.2197C17.671 26.3603 17.75 26.5511 17.75 26.75V27C17.75 27.5967 17.9871 28.169 18.409 28.591C18.831 29.0129 19.4033 29.25 20 29.25C20.5967 29.25 21.169 29.0129 21.591 28.591C22.0129 28.169 22.25 27.5967 22.25 27V26.75C22.25 26.5511 22.329 26.3603 22.4697 26.2197C22.6103 26.079 22.8011 26 23 26C23.1989 26 23.3897 26.079 23.5303 26.2197C23.671 26.3603 23.75 26.5511 23.75 26.75V27C23.7488 27.9942 23.3534 28.9474 22.6504 29.6504C21.9474 30.3534 20.9942 30.7488 20 30.75Z" fill="black"/>
<path d="M24 16.75C23.2583 16.75 22.5333 16.5301 21.9166 16.118C21.2999 15.706 20.8193 15.1203 20.5355 14.4351C20.2516 13.7498 20.1774 12.9958 20.3221 12.2684C20.4668 11.541 20.8239 10.8728 21.3484 10.3484C21.8728 9.8239 22.541 9.46675 23.2684 9.32206C23.9958 9.17736 24.7498 9.25162 25.4351 9.53545C26.1203 9.81928 26.706 10.2999 27.118 10.9166C27.5301 11.5333 27.75 12.2583 27.75 13C27.7488 13.9942 27.3534 14.9474 26.6504 15.6504C25.9474 16.3534 24.9942 16.7488 24 16.75ZM24 10.75C23.555 10.75 23.12 10.882 22.75 11.1292C22.38 11.3764 22.0916 11.7278 21.9213 12.139C21.751 12.5501 21.7064 13.0025 21.7932 13.439C21.8801 13.8754 22.0943 14.2763 22.409 14.591C22.7237 14.9057 23.1246 15.12 23.561 15.2068C23.9975 15.2936 24.4499 15.249 24.861 15.0787C25.2722 14.9084 25.6236 14.62 25.8708 14.25C26.118 13.88 26.25 13.445 26.25 13C26.2493 12.4035 26.012 11.8316 25.5902 11.4098C25.1684 10.988 24.5965 10.7507 24 10.75Z" fill="black"/>
</svg>
