<svg width="41" height="40" viewBox="0 0 41 40" fill="none" xmlns="http://www.w3.org/2000/svg">
<rect x="0.400391" width="40" height="40" rx="6" fill="#E1EFF2"/>
<path d="M31.6973 22.1094H23.7974C22.0227 20.3721 19.974 20.7542 19.6504 20.7031V19.8197C20.6069 19.1536 21.272 18.189 21.5738 17.1234C22.4877 16.8922 23.166 16.0628 23.166 15.0781C23.166 14.1615 22.5782 13.3799 21.7598 13.0897V12.9219C21.7598 10.208 19.5518 8 16.8379 8C14.124 8 11.916 10.208 11.916 12.9219V13.0897C11.0976 13.3799 10.5098 14.1615 10.5098 15.0781C10.5098 16.0626 11.1876 16.8916 12.1011 17.1232C12.4171 18.2479 13.1186 19.1879 14.0254 19.822V20.7031H13.3223C10.6083 20.7031 8.40039 22.9111 8.40039 25.625V31.2969C8.40039 31.6852 8.7152 32 9.10352 32C9.49183 32 9.80664 31.6852 9.80664 31.2969V25.625C9.80664 23.6865 11.3838 22.1094 13.3223 22.1094H14.1144C14.4274 23.3211 15.5298 24.2188 16.8379 24.2188C18.146 24.2188 19.2484 23.3211 19.5614 22.1094C20.1539 22.1316 20.6543 22.036 21.4046 22.2715C21.2493 22.4005 21.1504 22.5949 21.1504 22.8125V31.2969C21.1504 31.6852 21.4652 32 21.8535 32H31.6973C32.0856 32 32.4004 31.6852 32.4004 31.2969V22.8125C32.4004 22.4242 32.0856 22.1094 31.6973 22.1094ZM16.8379 9.40625C18.396 9.40625 19.7198 10.4254 20.1797 11.8318C18.0379 11.4561 15.3762 13.1868 13.3223 13.0702V12.9219C13.3223 10.9834 14.8994 9.40625 16.8379 9.40625ZM12.6435 15.7807C12.2554 15.7986 11.916 15.4801 11.916 15.0781C11.916 14.7135 12.1951 14.4129 12.5509 14.3785C15.2977 15.0056 18.629 12.5314 20.3535 13.3538V13.6719C20.3535 14.0602 20.6684 14.375 21.0567 14.375C21.4444 14.375 21.7598 14.6904 21.7598 15.0781C21.7598 15.4811 21.4194 15.7985 21.0323 15.7807C20.6764 15.7629 20.3633 16.0154 20.3046 16.3672C20.0211 18.0648 18.5631 19.2969 16.8379 19.2969C15.0724 19.2969 13.6443 18.0079 13.3714 16.3675C13.3127 16.0156 12.999 15.7632 12.6435 15.7807ZM16.8379 22.8125C16.0625 22.8125 15.4317 22.1817 15.4317 21.4063V20.5002C16.3336 20.7676 17.3102 20.7752 18.2442 20.4967V21.4063C18.2442 22.1817 17.6133 22.8125 16.8379 22.8125ZM26.0723 23.5157H27.4786V24.9219H26.0723V23.5157ZM30.9942 30.5938H22.5567V23.5157H24.666V25.625C24.666 26.0133 24.9809 26.3282 25.3692 26.3282H28.1817C28.57 26.3282 28.8848 26.0133 28.8848 25.625V23.5157H30.9942V30.5938Z" fill="#1F515B" stroke="#1F515B" stroke-width="0.1"/>
<path d="M11.916 26.3281C11.5277 26.3281 11.2129 26.6429 11.2129 27.0313V31.2969C11.2129 31.6852 11.5277 32 11.916 32C12.3043 32 12.6191 31.6852 12.6191 31.2969V27.0313C12.6191 26.6429 12.3043 26.3281 11.916 26.3281Z" fill="#1F515B" stroke="#1F515B" stroke-width="0.1"/>
<path d="M18.9473 26.3281H14.7285C14.3402 26.3281 14.0254 26.6429 14.0254 27.0313C14.0254 27.4196 14.3402 27.7344 14.7285 27.7344H18.9473C19.3356 27.7344 19.6504 27.4196 19.6504 27.0313C19.6504 26.6429 19.3356 26.3281 18.9473 26.3281Z" fill="#1F515B" stroke="#1F515B" stroke-width="0.1"/>
<path d="M18.9473 29.1406H14.7285C14.3402 29.1406 14.0254 29.4554 14.0254 29.8438C14.0254 30.2321 14.3402 30.5469 14.7285 30.5469H18.9473C19.3356 30.5469 19.6504 30.2321 19.6504 29.8438C19.6504 29.4554 19.3356 29.1406 18.9473 29.1406Z" fill="#1F515B" stroke="#1F515B" stroke-width="0.1"/>
</svg>
