<svg width="41" height="40" viewBox="0 0 41 40" fill="none" xmlns="http://www.w3.org/2000/svg">
<rect x="0.800781" width="40" height="40" rx="6" fill="#E4F9F8"/>
<path fill-rule="evenodd" clip-rule="evenodd" d="M31.6004 10.2059C31.875 9.93135 32.3203 9.93135 32.5948 10.2059C32.8694 10.4805 32.8694 10.9257 32.5948 11.2003L30.9777 12.8174C31.1819 13.3289 31.2945 13.8867 31.2945 14.4703V18.9875C31.2945 23.528 27.6006 27.2219 23.0601 27.2219H20.2388L22.5982 29.5813H24.5663C24.9546 29.5813 25.2695 29.8961 25.2695 30.2844C25.2695 30.6727 24.9546 30.9875 24.5663 30.9875H20.0476C19.6593 30.9875 19.3445 30.6727 19.3445 30.2844C19.3445 29.8961 19.6593 29.5813 20.0476 29.5813H20.6095L18.2501 27.2219H14.0226H9.5039C9.21951 27.2219 8.96315 27.0506 8.8543 26.7878C8.74551 26.5251 8.80565 26.2227 9.00674 26.0216L23.7584 11.2699C24.5772 10.4511 25.666 10 26.8242 10H26.8243C28.1867 10 29.4086 10.6129 30.2292 11.5772L31.6004 10.2059ZM22.357 14.66L11.2014 25.8156H14.0226C18.6182 25.8156 22.357 22.0768 22.357 17.4812V14.66ZM23.0602 25.8156C26.8252 25.8156 29.8883 22.7526 29.8883 18.9875H29.8882V14.4704C29.8882 12.7808 28.5138 11.4063 26.8243 11.4063C26.0417 11.4063 25.306 11.711 24.7528 12.2643C24.1147 12.9023 23.7633 13.7507 23.7633 14.6531V17.4813C23.7633 21.0099 21.8769 24.1066 19.06 25.8156H23.0602ZM28.282 13.7656C28.282 14.154 27.9672 14.4688 27.5789 14.4688C27.1906 14.4688 26.8758 14.154 26.8758 13.7656C26.8758 13.3773 27.1906 13.0625 27.5789 13.0625C27.9672 13.0625 28.282 13.3773 28.282 13.7656Z" fill="#00AFD6"/>
</svg>
